<svg width="37" height="37" viewBox="0 0 37 37" fill="none" xmlns="http://www.w3.org/2000/svg">
<path d="M10.7916 33.9167C9.94371 33.9167 9.2181 33.615 8.61479 33.0117C8.01046 32.4074 7.70829 31.6813 7.70829 30.8333C7.70829 29.9854 8.01046 29.2593 8.61479 28.655C9.2181 28.0517 9.94371 27.75 10.7916 27.75C11.6395 27.75 12.3652 28.0517 12.9685 28.655C13.5728 29.2593 13.875 29.9854 13.875 30.8333C13.875 31.6813 13.5728 32.4074 12.9685 33.0117C12.3652 33.615 11.6395 33.9167 10.7916 33.9167ZM26.2083 33.9167C25.3604 33.9167 24.6348 33.615 24.0315 33.0117C23.4271 32.4074 23.125 31.6813 23.125 30.8333C23.125 29.9854 23.4271 29.2593 24.0315 28.655C24.6348 28.0517 25.3604 27.75 26.2083 27.75C27.0562 27.75 27.7823 28.0517 28.3867 28.655C28.99 29.2593 29.2916 29.9854 29.2916 30.8333C29.2916 31.6813 28.99 32.4074 28.3867 33.0117C27.7823 33.615 27.0562 33.9167 26.2083 33.9167ZM9.48121 9.25001L13.1812 16.9583H23.9729L28.2125 9.25001H9.48121ZM8.01663 6.16668H30.7562C31.3472 6.16668 31.7968 6.42979 32.1052 6.95601C32.4135 7.48326 32.4263 8.01668 32.1437 8.55626L26.6708 18.4229C26.3882 18.9368 26.0089 19.3351 25.533 19.6177C25.0582 19.9004 24.5382 20.0417 23.9729 20.0417H12.4875L10.7916 23.125H29.2916V26.2083H10.7916C9.63538 26.2083 8.76176 25.7006 8.17079 24.6852C7.57982 23.6708 7.55413 22.6625 8.09371 21.6604L10.175 17.8833L4.62496 6.16668H1.54163V3.08334H6.55204L8.01663 6.16668ZM13.1812 16.9583H23.9729H13.1812Z" fill="white"/>
</svg>
